<svg xmlns="http://www.w3.org/2000/svg" viewBox="0 0 32 32">
  <defs>
    <linearGradient id="bg" x1="0%" y1="0%" x2="100%" y2="100%">
      <stop offset="0%" stop-color="#6366f1"/>
      <stop offset="100%" stop-color="#a855f7"/>
    </linearGradient>
  </defs>
  <!-- Rounded background -->
  <rect width="32" height="32" rx="7" fill="url(#bg)"/>
  <!-- Stylized {{ }} using simple shapes -->
  <!-- Left brace pair -->
  <g fill="none" stroke="white" stroke-width="2.5" stroke-linecap="round" stroke-linejoin="round">
    <!-- { (outer) -->
    <path d="M8 8 Q4 8 4 12 L4 14 Q4 16 2 16 Q4 16 4 18 L4 20 Q4 24 8 24"/>
    <!-- { (inner) -->
    <path d="M14 8 Q10 8 10 12 L10 14 Q10 16 8 16 Q10 16 10 18 L10 20 Q10 24 14 24"/>
    <!-- } (inner) -->
    <path d="M18 8 Q22 8 22 12 L22 14 Q22 16 24 16 Q22 16 22 18 L22 20 Q22 24 18 24"/>
    <!-- } (outer) -->
    <path d="M24 8 Q28 8 28 12 L28 14 Q28 16 30 16 Q28 16 28 18 L28 20 Q28 24 24 24"/>
  </g>
</svg>
